# xmcd
#
# Track frame offsets: 
#        150
#        10920
#        29274
#        41615
#        56540
#        66168
#        76877
#        89605
#        100360
#        109843
#
# Disc length: 1646 seconds
#
# Revision: 0
# Processed by: cddbd v1.5.2PL0 Copyright (c) Steve Scherf et al.
# Submitted via: ExactAudioCopy v1.2
#
DISCID=7c066c0a
DTITLE=Various Artist - R&B Legends - Volume Three
DYEAR=1951
DGENRE=R&B
TTITLE0=Billy Ward and The Dominoes - Have mercy baby
TTITLE1=John Lee Hooker - I cover the waterfront
TTITLE2=Sam and Dave - Soul man
TTITLE3=The Platters - Tell the world
TTITLE4=Bill Doggett - Squashy
TTITLE5=Donnie Elbert - Leona
TTITLE6=Billy Ward and The Dominoes - Love me now or let me go
TTITLE7=Little Willie John - Bill Bailey
TTITLE8=Lonnie Johnson - Blues stay away from me
TTITLE9=Bill Jennings - Roses of Picardy
EXTD=
EXTT0=
EXTT1=
EXTT2=
EXTT3=
EXTT4=
EXTT5=
EXTT6=
EXTT7=
EXTT8=
EXTT9=
PLAYORDER=
